- 
http://www.Speed.Cd 
       
http://www.Speed.Cd       the fast  and The Hottest Private Tracker on the net

Please Seed back to make the speed Faster!!!

and don't forget to visit      ...... http://www.Speed.Cd..........
-[img]http://img707.imageshack.us/img707/9426/gnomeodvd.jpg[/img]

[color=blue][size=5][b]Gnomeo.and.Juliet.2011.DVDRip.XVID.AC3.HQ.Hive-CM8[/b][/size][/color]


[b]Thx Hive


CM8 Doing It Right The First Time :D


Source R1 DVD

Encode: added brigtness,sharpness,rgb
looks very very nice, you can do so much more with animation!

Video: 720x384 @bitrate 2200 2pass
Audio: English AC3 5.1 @384
Sample: yes included
Subs: yes english in srt /subs[/b]


[url]http://www.imdb.com/title/tt0377981/[/url]


General
Complete name                    : Gnomeo.and.Juliet.2011.DVDRip.XVID.AC3.HQ.Hive-CM8.avi
Format                           : AVI
Format/Info                      : Audio Video Interleave
File size                        : 1.52 GiB
Duration                         : 1h 23mn
Overall bit rate                 : 2 592 Kbps
Writing application              : Nandub v1.0rc2
Writing library                  : Nandub build 1853/release

Video
ID                               : 0
Format                           : MPEG-4 Visual
Format profile                   : Advanced Simple@L5
Format settings, BVOP            : 2
Format settings, QPel            : Yes
Format settings, GMC             : No warppoints
Format settings, Matrix          : Default (H.263)
Muxing mode                      : Packed bitstream
Codec ID                         : XVID
Codec ID/Hint                    : XviD
Duration                         : 1h 23mn
Bit rate                         : 2 199 Kbps
Width                            : 720 pixels
Height                           : 384 pixels
Display aspect ratio             : 1.875
Frame rate                       : 23.976 fps
Color space                      : YUV
Chroma subsampling               : 4:2:0
Bit depth                        : 8 bits
Scan type                        : Progressive
Compression mode                 : Lossy
Bits/(Pixel*Frame)               : 0.332
Stream size                      : 1.29 GiB (85%)
Writing library                  : XviD 1.2.1 (UTC 2008-12-04)

Audio
ID                               : 1
Format                           : AC-3
Format/Info                      : Audio Coding 3
Mode extension                   : CM (complete main)
Codec ID                         : 2000
Duration                         : 1h 23mn
Bit rate mode                    : Constant
Bit rate                         : 384 Kbps
Channel(s)                       : 6 channels
Channel positions                : Front: L C R, Side: L R, LFE
Sampling rate                    : 48.0 KHz
Bit depth                        : 16 bits
Compression mode                 : Lossy
Delay relative to video          : 70ms
Stream size                      : 230 MiB (15%)
Alignment                        : Split accross interleaves
Interleave, duration             : 42 ms (1.00 video frame)
Interleave, preload duration     : 500 ms




James McAvoy	 ... 	Gnomeo (voice)
Emily Blunt	... 	Juliet (voice)
Michael Caine	... 	Lord Redbrick (voice)
Jim Cummings	... 	Featherstone (voice)
Maggie Smith	... 	Lady Bluebury (voice)
Jason Statham	... 	Tybalt (voice)
Ozzy Osbourne	... 	Fawn (voice)
Stephen Merchant	... 	Paris (voice)
Patrick Stewart	... 	Bill Shakespeare (voice)
Hulk Hogan	... 	Terrafirminator V.O. (voice)
Dolly Parton	... 	Dolly Gnome (voice)

The neighboring gardens of Montague and Capulet are at war, but the gnomes, Gnomeo and Juliet, are in love. 
 

[img]http://img809.imageshack.us/img809/1127/gngngngngn.png[/img]
[img]http://img853.imageshack.us/img853/7020/gngngn.png[/img]
[img]http://img508.imageshack.us/img508/6494/gngngnggnggngnnngn.png[/img]
[img]http://img508.imageshack.us/img508/3416/gngngnggnggnnngn.png[/img]
[img]http://img20.imageshack.us/img20/8060/gngngnggngnngn.png[/img]
[img]http://img845.imageshack.us/img845/8674/gngngnggnnggnggngnnngn.png[/img]
[img]http://img543.imageshack.us/img543/4364/gngngnggnngn.png[/img]
[img]http://img228.imageshack.us/img228/9061/gngngngn.png[/img]
[img]http://img560.imageshack.us/img560/8245/gngngngnggnggngnnngn.png[/img]
[img]http://img705.imageshack.us/img705/9538/90070670.png[/img]
[img]http://img508.imageshack.us/img508/8397/gngn.png[/img]




ViSiON,LUSi,SANTi,MAGNET,THC,T0XiCiNK,LKRG,IMAGiNE,WBZ,FLAWL3SS,NOVA
Vik,OneTwo,Rapeseed,D2U,SAFC,goldadvance,MEMORY100,KaN1vE,Unevano,Pinnz,Wayne,Mr Hive
and all P2P groups 
Great Work Guys :D

CM8@hushmail.com